<svg xmlns="http://www.w3.org/2000/svg" viewBox="0 0 82.3 88.4"><path fill-rule="evenodd" clip-rule="evenodd" fill="#E51C3E" d="M48.1 85.2v3.1H33.4v-3.1c2.1 0 3.2 0 3.4-2.7v-17h7.8v16.9c.1 2.8 1.3 2.7 3.5 2.8"/><path fill-rule="evenodd" clip-rule="evenodd" fill="#263778" d="M66.7 41.9l-10.8-8c-11.4-9.4-19.8-8.5-26.5-1.8-15.2-2.9-19.8 2.6-17.2 14 .5-6.5 2.4-11 7.6-10.9 2.7 0 5.4.7 8 .9 1.3.2 2.6.3 3.9.1 3.8-6 9.9-7.5 19.2-2 .1 0 .2.1.2.1l15.6 7.6zm-19.5-4.1c-2.9-2.7-6.4-4.2-9.7-3.8-2 3.8 2.1 5.8 5 3.8.7-.8 2.3-.8 4.7 0m-31.7 9.4c10.4-5.3 24.7.1 29.1 15.7h-7.8c-1-13.2-8.1-17.5-21.3-15.7M80.7 60l-2.9.8-1.5-1.2c-.5-.4-1-.7-1.6-1-.6-.3-1.1-.6-1.7-.8-.6-.2-1.2-.4-1.9-.6-.7-.1-1.4-.3-2.1-.3l-1.5-.1-1.8.1-.6.1-.8.2-.7.2-.6.2-.6.3-.5.3-.5.3-.4.4-.4.4-.3.4-.3.4-.2.5-.2.5-.1.5c0 .3 0 .6.1 1l.3.6.5.6.7.6.9.5 1.1.5 1.4.4.8.2c1.5.3 3.1.6 4.6 1 .8.2 1.6.5 2.5.7 1.2.4 2.4.8 3.5 1.4l1.8.9 1 .7c.5.4.9.7 1.3 1.1l.7.8.6.9.4 1 .3 1 .1 1.1-.1 1.8v1.2l-.3 1.2-.4 1.1-.6 1-.7 1-.8.9-.9.8-1.1.7-1.2.6-1.3.5-1.4.4-1.4.2-1.6.2-1.7.1H53.1V76.1h3.4v2.8l.1.6.1.6.2.5.2.5.3.4.3.4.4.4.4.4.5.3.6.3.6.3.7.2.7.2 1.7.3.9.1h2.7l1.2-.1 1.2-.1 1.1-.1 1-.2.9-.2.8-.3.8-.3.7-.3.6-.4.5-.4.4-.4.4-.4.3-.5.2-.4c.1-.4.1-.7.1-1.1l-.1-.7-.2-.6-.3-.6-.5-.5-.7-.5c-.4-.3-.9-.5-1.3-.7-1.5-.5-3.1-1-4.6-1.4-2.7-.8-5.5-1.4-8.1-2.4-1.8-.7-3.7-1.6-4.7-3.4l-.6-.8-.6-.9-.4-1-.3-1-.2-1v-1.1l.1-1.1.3-1 .4-1 .6-1 .8-.9.9-.9 1.1-.8 1.2-.8 1.4-.7 1.6-.7 1.8-.4 1.7-.2c.9-.1 1.7-.1 2.6-.1.9 0 1.7.1 2.6.1.9.1 1.7.2 2.6.3 1 .2 3.1.5 3.1.5l3.4 6.1zm-62.6-6.5l1.5.1 2.8.4 2.5.7 1.1.5 1 .5.9.6.8.7.7.8.6.9.5.9.3 1 .2 1.1.1 1.2-.1 1.3-.2 1.1-.4 1.1-.5 1-.6.9-.8.8-.9.7-1 .6-1.1.6-1.2.4-1.3.4-1.3.2-1.5.2-1.6.1-1.6.1h-2.9v-2.9l2.3-.2 1.2-.2 1-.3.9-.3.8-.3.7-.4.6-.4.5-.4.4-.4.3-.5.2-.5.2-.5.1-.5v-1l.1-.6-.1-.5-.3-.6-.2-.5-.3-.5-.3-.5-.4-.5-.4-.5-.5-.4-.5-.4-.5-.3-.6-.3-.6-.2-.6-.2-.6-.1-.7-.1h-5.6V82.7c.2 2.6 1.5 2.5 3.5 2.5v3.1H0v-3.1c2.2 0 3.2-.1 3.4-2.7V59.3c-.1-2.5-1-2.7-3.1-2.7v-3.2h16.2m44.2-34.6c2.1-2.3 4.3-2 4.8 1.4 1.9-.6 3.7-1 5.7-1.3C66.9 22.2 63 26 60 30.6c-3.5-4-12.6-9.3-17.6-8.1 1.5-5.3 1.8-10.7 1.5-16.1 1.1 1.7 2 3.3 2.7 5.2 2.9-1.9 4.6-.3 4.2 2.7 2.7-2.5 5.4-5.2 8.9-6.4 1.6 3.4 1.2 7.2 1 10.9M47.6 8.9c-.9-1.9-2.1-3.7-3.4-5.4L41.4 0c.2 2.7.5 5.5.6 8.2.1 5.4-.7 10.9-2.2 16 7.4-2.1 16.4 4.5 20.7 9.1 2.9-4.5 6.3-8.3 10.5-11.7 2.1-1.7 4.4-3.3 6.6-4.9l-4.5.2c-2.1.1-4.2.4-6.2.9-.8-1.4-2.7-2.3-4.3-2.2v-.2c.3-2.3-.6-7.7-2-9.6-2.4.3-6.9 3.2-8.4 5.1-.6-1.3-3.2-2.3-4.6-2z"/></svg>